<svg height="480pt" viewBox="-4 0 480 480.0697" width="480pt" xmlns="http://www.w3.org/2000/svg"><path d="m404.355469 352.398438-28.320313 28.320312-16.960937-17.039062c-3.136719-3.136719-8.222657-3.136719-11.359375 0-3.136719 3.136718-3.136719 8.222656 0 11.359374l22.640625 22.640626c1.5 1.515624 3.546875 2.367187 5.679687 2.367187 2.132813 0 4.175782-.851563 5.679688-2.367187l34.320312-34c2.28125-1.953126 3.277344-5.023438 2.574219-7.945313-.703125-2.925781-2.984375-5.207031-5.90625-5.910156s-5.992187.292969-7.949219 2.574219zm0 0"/><path d="m416.035156 296.800781v-24.800781c0-4.417969-3.582031-8-8-8h-24v-8c0-13.253906 10.746094-24 24-24 4.417969 0 8-3.582031 8-8s-3.582031-8-8-8c-22.089844 0-40 17.910156-40 40v8h-24c-4.417968 0-8 3.582031-8 8v24.800781c-41.027344 18.804688-63.414062 63.648438-53.792968 107.738281 9.625 44.09375 48.660156 75.53125 93.792968 75.53125 45.128906 0 84.167969-31.4375 93.792969-75.53125 9.621094-44.089843-12.765625-88.933593-53.792969-107.738281zm-32 167.199219v-8c0-4.417969-3.582031-8-8-8-4.417968 0-8 3.582031-8 8v8c-38.148437-3.65625-68.34375-33.851562-72-72h8c4.417969 0 8-3.582031 8-8s-3.582031-8-8-8h-8c3.015625-29.878906 22.507813-55.550781 50.480469-66.480469 3.078125-1.1875 5.109375-4.140625 5.121094-7.441406v-22.078125h48v22.078125c.007812 3.300781 2.039062 6.253906 5.117187 7.441406 28.285156 10.691407 48.125 36.410157 51.28125 66.480469h-8c-4.417968 0-8 3.582031-8 8s3.582032 8 8 8h8c-3.65625 38.148438-33.851562 68.34375-72 72zm0 0"/><path d="m257.714844 416c-1.679688 0-217.679688 0-217.679688 0-13.253906 0-24-10.746094-24-24v-256h416v147.679688c0 4.417968 3.582032 8 8 8 4.417969 0 8-3.582032 8-8v-203.679688c0-22.089844-17.910156-40-40-40h-16v-8c0-4.417969-3.582031-8-8-8-4.417968 0-8 3.582031-8 8v32c0 8.835938-7.164062 16-16 16-8.835937 0-16-7.164062-16-16v-32c0-8.835938 7.164063-16 16-16 4.417969 0 8-3.582031 8-8s-3.582031-8-8-8c-17.671875 0-32 14.328125-32 32v8h-72v-8c0-4.417969-3.582031-8-8-8-4.417968 0-8 3.582031-8 8v32c0 8.835938-7.164062 16-16 16-8.835937 0-16-7.164062-16-16v-32c0-8.835938 7.164063-16 16-16 4.417969 0 8-3.582031 8-8s-3.582031-8-8-8c-17.671875 0-32 14.328125-32 32v8h-72v-8c0-4.417969-3.582031-8-8-8-4.417968 0-8 3.582031-8 8v32c0 8.835938-7.164062 16-16 16-8.835937 0-16-7.164062-16-16v-32c0-8.835938 7.164063-16 16-16 4.417969 0 8-3.582031 8-8s-3.582031-8-8-8c-17.671875 0-32 14.328125-32 32v8h-16c-22.089844 0-39.9999998 17.910156-39.9999998 40v312c0 22.089844 17.9101558 40 39.9999998 40h184c42 0 42 0 42-8 .011719-2.125-.824218-4.171875-2.320312-5.679688-1.585938-1.578124-3.761719-2.421874-6-2.320312zm-217.679688-360h16v8c0 17.671875 14.328125 32 32 32s32-14.328125 32-32v-8h72v8c0 17.671875 14.328125 32 32 32s32-14.328125 32-32v-8h72v8c0 17.671875 14.328125 32 32 32s32-14.328125 32-32v-8h16c13.253906 0 24 10.746094 24 24v40h-416v-40c0-13.253906 10.746094-24 24-24zm0 0"/><path d="m144.035156 168c0-4.417969-3.582031-8-8-8h-64c-4.417968 0-8 3.582031-8 8v64c0 4.417969 3.582032 8 8 8h64c4.417969 0 8-3.582031 8-8zm-16 56h-48v-48h48zm0 0"/><path d="m136.035156 288c4.417969 0 8-3.582031 8-8s-3.582031-8-8-8h-64c-4.417968 0-8 3.582031-8 8v64c0 4.417969 3.582032 8 8 8h64c4.417969 0 8-3.582031 8-8v-32c0-4.417969-3.582031-8-8-8-4.417968 0-8 3.582031-8 8v24h-48v-48zm0 0"/><path d="m184.035156 272c-4.417968 0-8 3.582031-8 8v64c0 4.417969 3.582032 8 8 8h64c4.417969 0 8-3.582031 8-8v-64c0-4.417969-3.582031-8-8-8zm56 64h-48v-48h48zm0 0"/><path d="m360.035156 224c4.417969 0 8-3.582031 8-8v-48c0-4.417969-3.582031-8-8-8h-64c-4.417968 0-8 3.582031-8 8v64c0 4.417969 3.582032 8 8 8 4.417969 0 8-3.582031 8-8v-56h48v40c0 4.417969 3.582032 8 8 8zm0 0"/><path d="m253.714844 162.320312c-1.503906-1.515624-3.546875-2.367187-5.679688-2.367187-2.132812 0-4.179687.851563-5.679687 2.367187l-26.320313 26.398438-26.320312-26.398438c-3.136719-3.136718-8.222656-3.136718-11.359375 0-3.136719 3.136719-3.136719 8.222657 0 11.359376l26.398437 26.320312-26.398437 26.320312c-1.515625 1.5-2.367188 3.546876-2.367188 5.679688s.851563 4.179688 2.367188 5.679688c1.5 1.515624 3.546875 2.367187 5.679687 2.367187 2.132813 0 4.175782-.851563 5.679688-2.367187l26.320312-26.398438 26.320313 26.398438c1.5 1.515624 3.546875 2.367187 5.679687 2.367187 2.132813 0 4.175782-.851563 5.679688-2.367187 1.515625-1.5 2.367187-3.546876 2.367187-5.679688s-.851562-4.179688-2.367187-5.679688l-26.398438-26.320312 26.398438-26.320312c1.515625-1.5 2.367187-3.546876 2.367187-5.679688s-.851562-4.179688-2.367187-5.679688zm0 0"/></svg>